<?xml version="1.0" standalone="no"?>
<!DOCTYPE svg PUBLIC "-//W3C//DTD SVG 20010904//EN"
 "http://www.w3.org/TR/2001/REC-SVG-20010904/DTD/svg10.dtd">
<svg version="1.0" xmlns="http://www.w3.org/2000/svg"
 width="1024.000000pt" height="1024.000000pt" viewBox="0 0 1024.000000 1024.000000"
 preserveAspectRatio="xMidYMid meet">
<metadata>
Created by potrace 1.14, written by Peter Selinger 2001-2017
</metadata>
<g transform="translate(0.000000,1024.000000) scale(0.100000,-0.100000)"
fill="#000000" stroke="none">
<path d="M4807 8289 c-322 -23 -511 -93 -668 -249 -95 -95 -148 -184 -192
-325 -45 -146 -87 -397 -102 -610 -3 -49 -8 -101 -11 -114 l-5 -24 78 6 c555
46 787 57 1226 57 381 0 666 -11 1027 -40 129 -10 236 -18 237 -16 11 11 -40
405 -72 556 -105 502 -358 716 -899 760 -144 11 -455 11 -619 -1z"/>
<path d="M2745 6914 c-204 -31 -266 -76 -220 -163 36 -70 229 -216 440 -334
175 -98 577 -258 710 -283 19 -3 38 -11 43 -18 5 -6 15 -46 21 -90 7 -43 28
-139 47 -213 60 -238 92 -284 197 -293 l61 -5 42 -238 42 -238 58 -53 c33 -29
74 -66 93 -82 l34 -28 -6 -208 -6 -207 227 -194 c125 -106 296 -251 380 -321
83 -70 152 -131 152 -134 0 -4 -41 -47 -90 -97 l-91 -91 76 -158 c42 -88 74
-164 72 -170 -3 -6 -43 -96 -90 -201 l-86 -190 -42 -412 c-24 -227 -44 -411
-47 -409 -2 2 -32 123 -67 268 -35 144 -106 441 -158 658 -53 217 -108 445
-122 505 -14 61 -67 278 -116 483 l-90 374 3 175 3 176 -144 -151 -144 -151
-836 -278 c-460 -153 -838 -279 -841 -281 -7 -5 89 -192 166 -322 312 -523
755 -945 1285 -1224 442 -232 905 -346 1409 -346 826 0 1595 318 2185 905 269
267 463 535 635 873 28 57 50 105 48 108 -3 2 -380 130 -839 283 l-834 280
-147 152 -148 152 0 -170 0 -170 -100 -414 c-56 -228 -159 -659 -231 -959 -71
-300 -150 -633 -176 -740 l-47 -195 -42 375 c-24 206 -43 393 -43 415 -1 27
-29 103 -92 244 l-91 204 73 153 c83 176 86 147 -30 267 l-76 77 50 43 c27 23
135 114 240 202 105 88 255 214 333 280 l143 120 -3 208 -2 207 96 85 96 85
20 112 c12 62 31 170 43 240 l22 126 44 0 c67 0 113 30 145 92 30 60 77 232
108 394 23 122 24 126 48 126 30 0 363 116 487 169 215 93 417 209 563 326 80
63 142 140 142 176 0 34 -65 76 -147 96 -70 16 -124 18 -518 17 -242 -1 -613
-9 -825 -18 -1025 -43 -1163 -43 -2235 0 -368 15 -1203 27 -1260 18z m1278
-620 c148 -23 176 -25 245 -15 133 18 313 24 431 12 91 -8 127 -17 178 -40
l63 -30 56 30 c80 42 168 41 249 -1 l58 -30 51 25 c28 13 76 30 106 37 74 17
465 17 540 0 49 -11 73 -9 234 18 98 16 183 27 187 24 5 -3 9 -20 9 -39 0 -33
-1 -33 -117 -83 l-118 -49 -12 -96 c-35 -281 -93 -353 -302 -377 -167 -19
-388 -6 -459 28 -61 29 -95 86 -147 248 l-48 146 -45 20 c-31 14 -57 19 -85
15 -70 -10 -88 -31 -123 -153 -58 -203 -97 -262 -194 -292 -80 -25 -430 -25
-510 0 -70 22 -124 67 -156 130 -28 55 -63 201 -64 263 0 22 -5 47 -10 55 -5
8 -58 35 -117 60 -98 41 -108 48 -111 74 -5 39 5 58 25 52 10 -3 93 -17 186
-32z"/>
</g>
</svg>
